<?xml version="1.0" encoding="utf-8"?>
<!-- Generator: Adobe Illustrator 24.0.1, SVG Export Plug-In . SVG Version: 6.00 Build 0)  -->
<svg version="1.1" id="Layer_1" xmlns="http://www.w3.org/2000/svg" xmlns:xlink="http://www.w3.org/1999/xlink" x="0px" y="0px"
	 viewBox="0 0 268.6 252.9" style="enable-background:new 0 0 268.6 252.9;" xml:space="preserve">
<style type="text/css">
	.st0{fill:#FFFFFF;}
</style>
<g>
	<path class="st0" d="M226.3,183.7v2h-45.4c-0.5,0-2.4-1.4-4.1-3.2c-17.2-20.1-32.1-37.4-49.1-55.8c-6.6-7.1-10.9-8-12.5-7.7
		c-0.2,0-0.5,0.1-0.7,0.1c-52,10.7-67.4,41.2-70.7,66.6h-1.4c2.7-21.1,13.6-45.8,46.3-60.1V55.1c-0.2-9.3-7.6-11.3-13.7-12v-1.4
		h39.4v76c42.5-8.9,58.2-44.7,58.9-76h1.4c-0.4,21.8-6.7,39.9-18.9,53.9c-4.2,4.8-9.2,9.1-14.7,12.7c10.5,12.2,33.1,37.5,51.3,57.9
		c5.5,6.3,15,13.5,16.4,14.2C211.6,181.6,218.7,183.3,226.3,183.7L226.3,183.7z"/>
</g>
<g>
	<path class="st0" d="M35.5,252.2l-5.6-7.8h-7.3v7.8h-2.5v-18.9h11.3c4,0,6.2,2,6.2,5.6c0,3.1-1.7,5-4.8,5.5l5.7,7.9H35.5z
		 M22.6,242.2H31c2.7,0,4.1-1.1,4.1-3.4s-1.4-3.4-4.1-3.4h-8.4V242.2z"/>
	<path class="st0" d="M51.9,235.4v6.1H64v2.2H51.9v6.3h14v2.2H49.4v-18.9h16.5v2.2H51.9z"/>
	<path class="st0" d="M89.2,247.2H78.8l-2.3,5h-2.6l8.9-18.9h2.5l8.9,18.9h-2.7L89.2,247.2z M79.8,245h8.4l-4.2-9L79.8,245z"/>
	<path class="st0" d="M128,233.3l-6,18.9h-2.5l-4.8-15.1l-4.8,15.1h-2.5l-6-18.9h2.6l4.7,15.2l4.8-15.2h2.4l4.8,15.2l4.7-15.2H128z"
		/>
	<path class="st0" d="M150.5,247.2h-10.4l-2.3,5h-2.6l8.9-18.9h2.5l8.9,18.9h-2.7L150.5,247.2z M141.1,245h8.4l-4.2-9L141.1,245z"/>
	<path class="st0" d="M174.5,241.8l-5.7,4.7v5.7h-2.5v-18.9h2.5v10.4l12.6-10.4h3.5l-8.5,7l8.7,12H182L174.5,241.8z"/>
	<path class="st0" d="M198.3,235.4v6.1h12.2v2.2h-12.2v6.3h14v2.2h-16.5v-18.9h16.5v2.2H198.3z"/>
	<path class="st0" d="M240.9,233.3v18.9h-2.4l-12.9-16.4v16.4h-2.4v-18.9h3.4l11.8,15v-15H240.9z"/>
</g>
</svg>
