<?xml version="1.0" encoding="utf-8"?>
<!-- Generator: Adobe Illustrator 24.0.1, SVG Export Plug-In . SVG Version: 6.00 Build 0)  -->
<svg version="1.1" id="Layer_1" xmlns="http://www.w3.org/2000/svg" xmlns:xlink="http://www.w3.org/1999/xlink" x="0px" y="0px"
	 viewBox="0 0 688.5 343.1" style="enable-background:new 0 0 688.5 343.1;" xml:space="preserve">
<style type="text/css">
	.st0{fill:#C9998E;}
	.st1{fill:#CA9A8E;}
</style>
<g>
	<path class="st0" d="M505.7,240.5v3.4h-78.2c-0.8,0-4.2-2.4-7-5.5c-29.7-34-55.4-63.3-84.7-94.3c-11.4-12.1-18.7-13.5-21.6-13.1
		c-0.3,0.1-0.9,0.2-1.3,0.2c-89.6,18.1-116.1,69.7-121.8,112.6h-2.5c4.7-35.7,23.5-77.5,79.8-101.6V23C268,7.2,255.4,3.8,244.9,2.6
		V0.3h68v128.6c73.3-15,100.4-75.5,101.5-128.6h2.5c-0.6,36.8-11.6,67.5-32.6,91.1c-7.3,8.2-15.9,15.4-25.3,21.4
		c18.1,20.6,57.1,63.5,88.5,97.8c9.4,10.6,25.9,22.9,28.3,24C480.4,237,492.7,239.8,505.7,240.5L505.7,240.5z"/>
</g>
<g>
	<path class="st1" d="M27,329.2c0,8.4-5.6,13.8-14.4,13.8H0v-27.5h12.5C21.3,315.5,27,320.8,27,329.2z M23.2,329.2
		c0-6.6-4.2-10.6-11.1-10.6H3.7v21.2h8.4C19,339.8,23.2,335.8,23.2,329.2z"/>
	<path class="st1" d="M64.5,343l-8.3-11.3H45.4V343h-3.7v-27.5h16.8c5.9,0,9.2,2.9,9.2,8.1c0,4.5-2.6,7.3-7.1,8L69,343H64.5z
		 M45.4,328.5h12.4c4,0,6.1-1.6,6.1-4.9c0-3.3-2-4.9-6.1-4.9H45.4V328.5z"/>
	<path class="st1" d="M82.5,341c0-1.4,1-2.4,2.5-2.4c1.5,0,2.5,1,2.5,2.4s-1,2.4-2.5,2.4C83.5,343.5,82.5,342.5,82.5,341z"/>
	<path class="st1" d="M136,327.9l-8.5,6.8v8.3h-3.7v-27.5h3.7v15.1l18.6-15.1h5.2l-12.5,10.1l12.9,17.4h-4.5L136,327.9z"/>
	<path class="st1" d="M169.2,318.6v8.9h18.1v3.2h-18.1v9.2h20.7v3.2h-24.5v-27.5h24.5v3.2H169.2z"/>
	<path class="st1" d="M227.8,339.8v3.2h-23.6v-27.5h3.7v24.4H227.8z"/>
	<path class="st1" d="M265.3,339.8v3.2h-23.6v-27.5h3.7v24.4H265.3z"/>
	<path class="st1" d="M284.9,330.2V343h-3.7v-12.7l-12.5-14.8h4.8l9.6,11.4l9.6-11.4h4.6L284.9,330.2z"/>
	<path class="st1" d="M355.7,318.6h-11.3V343h-3.7v-24.4h-11.3v-3.2h26.2V318.6z"/>
	<path class="st1" d="M395.8,315.5V343h-3.7v-12.3h-18.8V343h-3.7v-27.5h3.7v12h18.8v-12H395.8z"/>
	<path class="st1" d="M410.5,329.2c0-8.5,6.1-14.2,15.3-14.2s15.3,5.7,15.3,14.2c0,8.5-6.1,14.2-15.3,14.2S410.5,337.8,410.5,329.2z
		 M437.3,329.2c0-6.6-4.6-10.9-11.5-10.9s-11.5,4.3-11.5,10.9c0,6.6,4.6,10.9,11.5,10.9S437.3,335.8,437.3,329.2z"/>
	<path class="st1" d="M478.6,343l-8.3-11.3h-10.8V343h-3.7v-27.5h16.8c5.9,0,9.2,2.9,9.2,8.1c0,4.5-2.6,7.3-7.1,8l8.5,11.5H478.6z
		 M459.4,328.5h12.4c4,0,6.1-1.6,6.1-4.9c0-3.3-2-4.9-6.1-4.9h-12.4V328.5z"/>
	<path class="st1" d="M523.3,315.5V343h-3.5l-19.1-23.8V343h-3.6v-27.5h5.1l17.5,21.8v-21.8H523.3z"/>
	<path class="st1" d="M566.1,335.5c0,4.9-3.4,7.4-9.7,7.4h-17v-27.5h16.5c6.1,0,9.4,2.5,9.4,7.2c0,3.1-1.6,5.2-4.5,6.2
		C564.2,329.8,566.1,332.1,566.1,335.5z M543.1,327.5h12.6c3.8,0,5.8-1.5,5.8-4.4c0-3-2-4.5-5.8-4.5h-12.6V327.5z M562.3,335.3
		c0-3.1-2-4.6-6.1-4.6h-13.1v9.2h13.1C560.2,339.8,562.3,338.3,562.3,335.3z"/>
	<path class="st1" d="M580.4,333v-17.5h3.7v16.9c0,5.1,3.2,7.8,9.3,7.8s9.3-2.6,9.3-7.8v-16.9h3.6v17.5c0,6.7-4.7,10.5-12.9,10.5
		C585.1,343.5,580.4,339.7,580.4,333z"/>
	<path class="st1" d="M644.9,343l-8.3-11.3h-10.8V343H622v-27.5h16.8c5.9,0,9.2,2.9,9.2,8.1c0,4.5-2.6,7.3-7.1,8l8.5,11.5H644.9z
		 M625.8,328.5h12.4c4,0,6.1-1.6,6.1-4.9c0-3.3-2-4.9-6.1-4.9h-12.4V328.5z"/>
	<path class="st1" d="M676.1,330.2V343h-3.7v-12.7l-12.5-14.8h4.8l9.6,11.4l9.6-11.4h4.6L676.1,330.2z"/>
</g>
</svg>
