<svg id="Layer_1" data-name="Layer 1" xmlns="http://www.w3.org/2000/svg" viewBox="0 0 17 17"><defs><style>.cls-1{fill:#f4e8e5;}.cls-2{fill:#ca9a8e;}</style></defs><title>Artboard 3mdpi</title><circle class="cls-1" cx="8.5" cy="8.5" r="8.18"/><path class="cls-2" d="M10.3,3.7H6.7a3,3,0,0,0-3,3v3.6a3,3,0,0,0,3,3h3.6a3,3,0,0,0,3-3V6.7A3,3,0,0,0,10.3,3.7Zm2.1,6.6a2.1,2.1,0,0,1-2.1,2.1H6.7a2.1,2.1,0,0,1-2.1-2.1V6.7A2.1,2.1,0,0,1,6.7,4.6h3.6a2.1,2.1,0,0,1,2.1,2.1Z"/><path class="cls-2" d="M8.5,6.1a2.4,2.4,0,1,0,2.4,2.4A2.39,2.39,0,0,0,8.5,6.1Zm0,3.9A1.5,1.5,0,1,1,10,8.5,1.5,1.5,0,0,1,8.5,10Z"/><circle class="cls-2" cx="11.08" cy="5.92" r="0.32"/></svg>