<svg id="Layer_1" data-name="Layer 1" xmlns="http://www.w3.org/2000/svg" viewBox="0 0 17 17"><defs><style>.cls-1{fill:#f4e8e5;}.cls-2{fill:#ca9a8e;}</style></defs><title>Artboard 2mdpi</title><circle class="cls-1" cx="8.5" cy="8.5" r="8.18"/><path class="cls-2" d="M13.39,9.16v3.37h-2V9.38c0-.79-.28-1.33-1-1.33a1.07,1.07,0,0,0-1,.72,1.39,1.39,0,0,0-.07.48v3.28H7.42s0-5.33,0-5.88H9.37V7.5h0v0a2,2,0,0,1,1.77-1c1.28,0,2.25.84,2.25,2.65Zm-8-5.35a1,1,0,1,0,0,2h0a1,1,0,1,0,0-2Zm-1,8.72h2V6.65h-2Z"/></svg>