<?xml version="1.0" encoding="utf-8"?>
<!-- Generator: Adobe Illustrator 24.0.1, SVG Export Plug-In . SVG Version: 6.00 Build 0)  -->
<svg version="1.1" id="Layer_1" xmlns="http://www.w3.org/2000/svg" xmlns:xlink="http://www.w3.org/1999/xlink" x="0px" y="0px"
	 viewBox="0 0 362.8 14.8" style="enable-background:new 0 0 362.8 14.8;" xml:space="preserve">
<style type="text/css">
	.st0{fill:#CA9A8E;}
</style>
<g>
	<path class="st0" d="M14.2,7.4c0,4.5-3,7.4-7.6,7.4H0V0h6.6C11.2,0,14.2,2.9,14.2,7.4z M12.2,7.4c0-3.5-2.2-5.7-5.8-5.7H2v11.4h4.4
		C10,13.1,12.2,10.9,12.2,7.4z"/>
	<path class="st0" d="M34,14.8l-4.4-6.1h-5.7v6.1h-2V0h8.9c3.1,0,4.8,1.6,4.8,4.3c0,2.4-1.3,3.9-3.8,4.3l4.5,6.1H34z M23.9,7h6.5
		c2.1,0,3.2-0.9,3.2-2.7s-1.1-2.7-3.2-2.7h-6.5V7z"/>
	<path class="st0" d="M43.5,13.7c0-0.8,0.5-1.3,1.3-1.3s1.3,0.5,1.3,1.3S45.6,15,44.8,15S43.5,14.5,43.5,13.7z"/>
	<path class="st0" d="M71.7,6.7l-4.5,3.7v4.4h-2V0h2v8.1L77,0h2.7l-6.6,5.4l6.8,9.3h-2.4L71.7,6.7z"/>
	<path class="st0" d="M89.2,1.7v4.8h9.5v1.7h-9.5v4.9h10.9v1.7H87.2V0h12.9v1.7H89.2z"/>
	<path class="st0" d="M120.1,13.1v1.7h-12.5V0h2v13.1H120.1z"/>
	<path class="st0" d="M139.8,13.1v1.7h-12.5V0h2v13.1H139.8z"/>
	<path class="st0" d="M150.1,7.9v6.8h-2V7.9L141.6,0h2.5l5.1,6.1l5.1-6.1h2.4L150.1,7.9z"/>
	<path class="st0" d="M187.4,1.7h-5.9v13.1h-2V1.7h-5.9V0h13.8V1.7z"/>
	<path class="st0" d="M208.6,0v14.8h-2V8.1h-9.9v6.6h-2V0h2v6.5h9.9V0H208.6z"/>
	<path class="st0" d="M216.3,7.4c0-4.6,3.2-7.6,8.1-7.6c4.8,0,8.1,3.1,8.1,7.6s-3.2,7.6-8.1,7.6C219.5,15,216.3,12,216.3,7.4z
		 M230.4,7.4c0-3.5-2.4-5.9-6.1-5.9c-3.6,0-6.1,2.3-6.1,5.9s2.4,5.9,6.1,5.9C228,13.3,230.4,10.9,230.4,7.4z"/>
	<path class="st0" d="M252.2,14.8l-4.4-6.1h-5.7v6.1h-2V0h8.9c3.1,0,4.8,1.6,4.8,4.3c0,2.4-1.3,3.9-3.8,4.3l4.5,6.1H252.2z M242.1,7
		h6.5c2.1,0,3.2-0.9,3.2-2.7s-1.1-2.7-3.2-2.7h-6.5V7z"/>
	<path class="st0" d="M275.7,0v14.8h-1.8L263.8,2v12.8h-1.9V0h2.7l9.2,11.7V0H275.7z"/>
	<path class="st0" d="M298.3,10.8c0,2.6-1.8,4-5.1,4h-9V0h8.7c3.2,0,4.9,1.3,4.9,3.9c0,1.7-0.8,2.8-2.4,3.3
		C297.3,7.7,298.3,8.9,298.3,10.8z M286.2,6.5h6.6c2,0,3-0.8,3-2.4c0-1.6-1-2.4-3-2.4h-6.6V6.5z M296.3,10.6c0-1.7-1.1-2.5-3.2-2.5
		h-6.9v4.9h6.9C295.2,13.1,296.3,12.3,296.3,10.6z"/>
	<path class="st0" d="M305.8,9.4V0h2v9.1c0,2.8,1.7,4.2,4.9,4.2s4.9-1.4,4.9-4.2V0h1.9v9.4c0,3.6-2.5,5.6-6.8,5.6
		C308.3,15,305.8,13,305.8,9.4z"/>
	<path class="st0" d="M339.8,14.8l-4.4-6.1h-5.7v6.1h-2V0h8.9c3.1,0,4.8,1.6,4.8,4.3c0,2.4-1.3,3.9-3.8,4.3l4.5,6.1H339.8z M329.7,7
		h6.5c2.1,0,3.2-0.9,3.2-2.7s-1.1-2.7-3.2-2.7h-6.5V7z"/>
	<path class="st0" d="M356.2,7.9v6.8h-2V7.9L347.7,0h2.5l5.1,6.1l5.1-6.1h2.4L356.2,7.9z"/>
</g>
</svg>
